<!DOCTYPE svg PUBLIC "-//W3C//DTD SVG 1.1//EN" "http://www.w3.org/Graphics/SVG/1.1/DTD/svg11.dtd">
                <svg xmlns="http://www.w3.org/2000/svg" xmlns:xlink="http://www.w3.org/1999/xlink" 
                width="311" height="190">
                <g>
            <rect x="80" y="80"
            width="106.80000000000001" height="30"
            rx="3" ry="3"
            style="fill:#ce93d8; stroke:#444; stroke-width:1" />                
            <polygon points="50,95 80,65 110,95 80,125"
            style="fill:#ce93d8; stroke:#444; stroke-width:1" />
            <title>(true)</title>
            <text x="125" y="100"
                font-family="monospace" font-size="13" fill="#222">
                <tspan x="125" y="100">(true)</tspan>
            </text>
            
            <text x="72.2" y="100"
        font-family="monospace" font-size="13" fill="#222">if</text> <text x="87.8" y="126.95"
        font-family="monospace" font-size="13" fill="#222">+</text> 
        </g>
                <g>
                   <rect x="100" y="135"
            width="186" height="30"
            rx="2" ry="2"
            style="fill:#C5E1A5; stroke:#444; stroke-width:1" />
                   <title>console.log(&apos;hello&apos;)</title>
            <text x="115" y="155"
                font-family="monospace" font-size="13" fill="#222">
                <tspan x="115" y="155">console.log(&apos;hello&apos;)</tspan>
            </text>
                   
                   
                </g>
            <g>
               <rect x="25" y="13.75"
            width="216.6" height="24"
            style="fill:#fff59d; stroke:#444; stroke-width:1" />
               <circle cx="25" cy="25" r="15"
        style="fill:#fff59d; stroke:#444; stroke-width:1" />
               <title>Program: source module</title>
            <text x="55" y="30"
                font-family="monospace" font-size="13" fill="#222">
                <tspan x="55" y="30">Program: source module</tspan>
            </text>
            </g>
            <g>
               <path d="M25, 40 L25 91 Q25 95
                29 95
                L42 95 "
        style="fill:none; stroke:#444; stroke-width:1" />
               <path d="M42, 92 L50, 95 L42, 98 Z" 
        fill="#333" />
            </g>
            <g>
               <path d="M80, 125 L80 146 Q80 150
                84 150
                L92 150 "
        style="fill:none; stroke:#444; stroke-width:1" />
               <path d="M92, 147 L100, 150 L92, 153 Z" 
        fill="#333" />
            </g>
            </svg>